<svg version="1.1" xmlns="http://www.w3.org/2000/svg" viewBox="0 0 920.76953125 249.08203125" width="920.76953125" height="249.08203125">
  <!-- svg-source:excalidraw -->
  
  <defs>
    <style>
      @font-face {
        font-family: "Virgil";
        src: url("https://excalidraw.com/Virgil.woff2");
      }
      @font-face {
        font-family: "Cascadia";
        src: url("https://excalidraw.com/Cascadia.woff2");
      }
    </style>
  </defs>
  <rect x="0" y="0" width="920.76953125" height="249.08203125" fill="#ffffff"></rect><g transform="translate(36.94921875 145.98828125) rotate(0 104.5 17.5)"><text x="0" y="25" font-family="Virgil, Segoe UI Emoji" font-size="28px" fill="#364fc7" text-anchor="start" style="white-space: pre;" direction="ltr">Liveness Probe:</text></g><g transform="translate(10 185.58984375) rotate(0 114.5 20)"><text x="0" y="14" font-family="Virgil, Segoe UI Emoji" font-size="16px" fill="#000000" text-anchor="start" style="white-space: pre;" direction="ltr">Validar si el pob está vivo </text><text x="0" y="34" font-family="Virgil, Segoe UI Emoji" font-size="16px" fill="#000000" text-anchor="start" style="white-space: pre;" direction="ltr">pero no responde y lo reinicia</text></g><g transform="translate(283.83984375 185.2265625) rotate(0 151 10)"><text x="0" y="14" font-family="Virgil, Segoe UI Emoji" font-size="16px" fill="#000000" text-anchor="start" style="white-space: pre;" direction="ltr">Validar si el pob puede recirbir tráfico</text></g><g transform="translate(321.56640625 149.9453125) rotate(0 115.5 17.5)"><text x="0" y="25" font-family="Virgil, Segoe UI Emoji" font-size="28px" fill="#364fc7" text-anchor="start" style="white-space: pre;" direction="ltr">Readiness Probe:</text></g><g stroke-linecap="round" transform="translate(287.125 10) rotate(0 115 37.5)"><path d="M116.16 -0.23 C140.77 9.28, 168.25 16.86, 231.36 37.47 M116.79 0.82 C153.31 12.92, 190.21 24.93, 230.76 38.91 M231.03 38.8 C190.48 48.71, 147.07 63.99, 114.82 73.34 M229.6 37.31 C187.72 52.08, 146.55 65.63, 115.27 75.22 M116.15 76.99 C78.21 65.35, 41.85 52.67, -0.83 37.83 M116.24 74.63 C84.36 63.36, 53.28 54.1, 0.59 37.45 M1.19 39.46 C25.53 30.94, 48.91 19.29, 114.24 -1.31 M0.36 37.17 C30.3 29.23, 60.1 18.4, 116.83 -0.12" stroke="#000000" stroke-width="1" fill="none"></path></g><g transform="translate(292.125 30) rotate(0 110 17.5)"><text x="110" y="25" font-family="Virgil, Segoe UI Emoji" font-size="28px" fill="#364fc7" text-anchor="middle" style="white-space: pre;" direction="ltr">kubelet</text></g><g stroke-linecap="round"><g transform="translate(291.21510005062464 44.95417621415112) rotate(0 -81.06222818031972 46.1210219039116)"><path d="M0.96 0.89 C-26.33 16.18, -135.8 76.93, -163.08 91.94 M0 0.31 C-26.97 15.26, -133.52 75, -160.81 90.31" stroke="#364fc7" stroke-width="1" fill="none"></path></g><g transform="translate(291.21510005062464 44.95417621415112) rotate(0 -81.06222818031972 46.1210219039116)"><path d="M-139.76 66.19 C-146.55 75.01, -155.19 84.08, -159.48 91.08 M-140.4 67.41 C-147.68 75.33, -154.97 83.06, -160.54 90.5" stroke="#364fc7" stroke-width="1" fill="none"></path></g><g transform="translate(291.21510005062464 44.95417621415112) rotate(0 -81.06222818031972 46.1210219039116)"><path d="M-129.72 84.09 C-140.09 86.65, -152.3 89.38, -159.48 91.08 M-130.37 85.31 C-141.27 86.83, -152.11 88.23, -160.54 90.5" stroke="#364fc7" stroke-width="1" fill="none"></path></g></g><g stroke-linecap="round"><g transform="translate(404.0078125 84.5390625) rotate(0 -0.8024686696236358 35.01715499006218)"><path d="M0.18 -0.41 C-0.15 11.43, -0.77 59.74, -1.01 71.7 M-1.19 -1.67 C-1.73 9.74, -1.64 57.37, -1.78 69.76" stroke="#364fc7" stroke-width="1" fill="none"></path></g><g transform="translate(404.0078125 84.5390625) rotate(0 -0.8024686696236358 35.01715499006218)"><path d="M-12.59 42.09 C-7.34 52.31, -4.05 63.68, -1.2 70.89 M-12.22 41.12 C-8.39 49.96, -6.64 57.08, -2.07 69.86" stroke="#364fc7" stroke-width="1" fill="none"></path></g><g transform="translate(404.0078125 84.5390625) rotate(0 -0.8024686696236358 35.01715499006218)"><path d="M7.93 42.19 C5.39 52.4, 0.89 63.74, -1.2 70.89 M8.3 41.21 C6.41 50.16, 2.44 57.25, -2.07 69.86" stroke="#364fc7" stroke-width="1" fill="none"></path></g></g><g stroke-linecap="round"><g transform="translate(514.2633855986871 48.49282840212808) rotate(0 109.79759013815999 42.84805046817286)"><path d="M0.48 -0.29 C36.99 13.92, 181.49 71.24, 218.12 85.66 M-0.72 -1.48 C36.23 12.89, 183.51 72.9, 220.32 87.18" stroke="#364fc7" stroke-width="1" fill="none"></path></g><g transform="translate(514.2633855986871 48.49282840212808) rotate(0 109.79759013815999 42.84805046817286)"><path d="M189.85 84.63 C196.98 88.32, 204.65 86.88, 221.25 87.71 M190.52 85.49 C197 87.54, 203.36 87.13, 219.44 86.22" stroke="#364fc7" stroke-width="1" fill="none"></path></g><g transform="translate(514.2633855986871 48.49282840212808) rotate(0 109.79759013815999 42.84805046817286)"><path d="M197.45 65.57 C202.95 73.56, 208.92 76.39, 221.25 87.71 M198.12 66.42 C202.71 72.88, 207.29 76.91, 219.44 86.22" stroke="#364fc7" stroke-width="1" fill="none"></path></g></g><g transform="translate(644.48828125 141.19140625) rotate(0 104 17.5)"><text x="0" y="25" font-family="Virgil, Segoe UI Emoji" font-size="28px" fill="#364fc7" text-anchor="start" style="white-space: pre;" direction="ltr">startup probes</text></g><g transform="translate(624.76953125 179.08203125) rotate(0 143 30)"><text x="0" y="14" font-family="Virgil, Segoe UI Emoji" font-size="16px" fill="#000000" text-anchor="start" style="white-space: pre;" direction="ltr">Validar si ha iniciado el container.</text><text x="0" y="34" font-family="Virgil, Segoe UI Emoji" font-size="16px" fill="#000000" text-anchor="start" style="white-space: pre;" direction="ltr">En caso de usar startup desactiva</text><text x="0" y="54" font-family="Virgil, Segoe UI Emoji" font-size="16px" fill="#000000" text-anchor="start" style="white-space: pre;" direction="ltr">liveness y readines Probes</text></g></svg>